REM DIRINDEX 1\2,1\3,1\4,1\5,1\6,1\7,1\8
REM DIRNAME folder01,folder02,folder03,folder04,folder05,folder06,folder07,folder08
TITLE ""
FILE "26_Ch6_RelaxingatHome_Words.mp3" MP3
  TRACK 01 AUDIO
    TITLE "0:"
    INDEX 01 00:00:00
  TRACK 02 AUDIO
    TITLE "8:cjc152_1413"
    INDEX 01 00:00:15
  TRACK 03 AUDIO
    TITLE "0:"
    INDEX 01 00:03:45
  TRACK 04 AUDIO
    TITLE "8:cjc152_1414"
    INDEX 01 00:04:31
  TRACK 05 AUDIO
    TITLE "0:"
    INDEX 01 00:05:36
  TRACK 06 AUDIO
    TITLE "2:cjc152_1415"
    INDEX 01 00:06:28
  TRACK 07 AUDIO
    TITLE "0:"
    INDEX 01 00:07:31
  TRACK 08 AUDIO
    TITLE "2:cjc152_1416"
    INDEX 01 00:07:60
  TRACK 09 AUDIO
    TITLE "0:"
    INDEX 01 00:09:28
  TRACK 10 AUDIO
    TITLE "2:cjc152_1417"
    INDEX 01 00:10:12
  TRACK 11 AUDIO
    TITLE "0:"
    INDEX 01 00:11:50
  TRACK 12 AUDIO
    TITLE "2:cjc152_1418"
    INDEX 01 00:12:05
  TRACK 13 AUDIO
    TITLE "0:"
    INDEX 01 00:13:39
  TRACK 14 AUDIO
    TITLE "2:cjc152_1419"
    INDEX 01 00:14:21
  TRACK 15 AUDIO
    TITLE "0:"
    INDEX 01 00:15:44
  TRACK 16 AUDIO
    TITLE "2:cjc152_1420"
    INDEX 01 00:15:74
  TRACK 17 AUDIO
    TITLE "0:"
    INDEX 01 00:17:53
  TRACK 18 AUDIO
    TITLE "2:cjc152_1421"
    INDEX 01 00:18:37
  TRACK 19 AUDIO
    TITLE "0:"
    INDEX 01 00:19:48
  TRACK 20 AUDIO
    TITLE "2:cjc152_1422"
    INDEX 01 00:20:04
  TRACK 21 AUDIO
    TITLE "0:"
    INDEX 01 00:21:19
  TRACK 22 AUDIO
    TITLE "2:cjc152_1423"
    INDEX 01 00:22:05
  TRACK 23 AUDIO
    TITLE "0:"
    INDEX 01 00:23:08
  TRACK 24 AUDIO
    TITLE "2:cjc152_1424"
    INDEX 01 00:23:38
  TRACK 25 AUDIO
    TITLE "0:"
    INDEX 01 00:24:53
  TRACK 26 AUDIO
    TITLE "2:cjc152_1425"
    INDEX 01 00:25:37
  TRACK 27 AUDIO
    TITLE "0:"
    INDEX 01 00:26:46
  TRACK 28 AUDIO
    TITLE "2:cjc152_1426"
    INDEX 01 00:27:02
  TRACK 29 AUDIO
    TITLE "0:"
    INDEX 01 00:28:35
  TRACK 30 AUDIO
    TITLE "2:cjc152_1427"
    INDEX 01 00:29:21
  TRACK 31 AUDIO
    TITLE "0:"
    INDEX 01 00:30:50
  TRACK 32 AUDIO
    TITLE "2:cjc152_1428"
    INDEX 01 00:31:08
  TRACK 33 AUDIO
    TITLE "0:"
    INDEX 01 00:32:43
  TRACK 34 AUDIO
    TITLE "2:cjc152_1429"
    INDEX 01 00:33:26
  TRACK 35 AUDIO
    TITLE "0:"
    INDEX 01 00:34:26
  TRACK 36 AUDIO
    TITLE "2:cjc152_1430"
    INDEX 01 00:34:55
  TRACK 37 AUDIO
    TITLE "0:"
    INDEX 01 00:36:19
  TRACK 38 AUDIO
    TITLE "2:cjc152_1431"
    INDEX 01 00:37:01
  TRACK 39 AUDIO
    TITLE "0:"
    INDEX 01 00:38:12
  TRACK 40 AUDIO
    TITLE "2:cjc152_1432"
    INDEX 01 00:38:41
  TRACK 41 AUDIO
    TITLE "0:"
    INDEX 01 00:40:26
  TRACK 42 AUDIO
    TITLE "2:cjc152_1433"
    INDEX 01 00:41:10
  TRACK 43 AUDIO
    TITLE "0:"
    INDEX 01 00:42:06
  TRACK 44 AUDIO
    TITLE "2:cjc152_1434"
    INDEX 01 00:42:35
  TRACK 45 AUDIO
    TITLE "0:"
    INDEX 01 00:43:50
  TRACK 46 AUDIO
    TITLE "2:cjc152_1435"
    INDEX 01 00:44:34
  TRACK 47 AUDIO
    TITLE "0:"
    INDEX 01 00:45:57
  TRACK 48 AUDIO
    TITLE "2:cjc152_1436"
    INDEX 01 00:46:09
  TRACK 49 AUDIO
    TITLE "0:"
    INDEX 01 00:47:68
  TRACK 50 AUDIO
    TITLE "2:cjc152_1437"
    INDEX 01 00:48:49
  TRACK 51 AUDIO
    TITLE "0:"
    INDEX 01 00:49:63
  TRACK 52 AUDIO
    TITLE "2:cjc152_1438"
    INDEX 01 00:50:17
  TRACK 53 AUDIO
    TITLE "0:"
    INDEX 01 00:51:11
  TRACK 54 AUDIO
    TITLE "2:cjc152_1439"
    INDEX 01 00:51:71
  TRACK 55 AUDIO
    TITLE "0:"
    INDEX 01 00:53:15
  TRACK 56 AUDIO
    TITLE "2:cjc152_1440"
    INDEX 01 00:53:51
  TRACK 57 AUDIO
    TITLE "0:"
    INDEX 01 00:55:14
  TRACK 58 AUDIO
    TITLE "2:cjc152_1441"
    INDEX 01 00:55:73
  TRACK 59 AUDIO
    TITLE "0:"
    INDEX 01 00:57:25
  TRACK 60 AUDIO
    TITLE "2:cjc152_1442"
    INDEX 01 00:57:56
  TRACK 61 AUDIO
    TITLE "0:"
    INDEX 01 00:58:60
  TRACK 62 AUDIO
    TITLE "2:cjc152_1443"
    INDEX 01 00:59:41
  TRACK 63 AUDIO
    TITLE "0:"
    INDEX 01 01:00:64
  TRACK 64 AUDIO
    TITLE "2:cjc152_1444"
    INDEX 01 01:01:19
  TRACK 65 AUDIO
    TITLE "0:"
    INDEX 01 01:02:73
  TRACK 66 AUDIO
    TITLE "2:cjc152_1445"
    INDEX 01 01:03:57
  TRACK 67 AUDIO
    TITLE "0:"
    INDEX 01 01:04:54
  TRACK 68 AUDIO
    TITLE "2:cjc152_1446"
    INDEX 01 01:05:11
  TRACK 69 AUDIO
    TITLE "0:"
    INDEX 01 01:06:10
  TRACK 70 AUDIO
    TITLE "2:cjc152_1447"
    INDEX 01 01:06:67
  TRACK 71 AUDIO
    TITLE "0:"
    INDEX 01 01:08:48
  TRACK 72 AUDIO
    TITLE "2:cjc152_1448"
    INDEX 01 01:09:05
  TRACK 73 AUDIO
    TITLE "0:"
    INDEX 01 01:11:13
  TRACK 74 AUDIO
    TITLE "2:cjc152_1449"
    INDEX 01 01:11:74
  TRACK 75 AUDIO
    TITLE "0:"
    INDEX 01 01:13:36
  TRACK 76 AUDIO
    TITLE "2:cjc152_1450"
    INDEX 01 01:13:63
  TRACK 77 AUDIO
    TITLE "0:"
    INDEX 01 01:15:25
  TRACK 78 AUDIO
    TITLE "2:cjc152_1451"
    INDEX 01 01:16:11
  TRACK 79 AUDIO
    TITLE "0:"
    INDEX 01 01:17:28
  TRACK 80 AUDIO
    TITLE "2:cjc152_1452"
    INDEX 01 01:17:69
  TRACK 81 AUDIO
    TITLE "0:"
    INDEX 01 01:19:36
  TRACK 82 AUDIO
    TITLE "2:cjc152_1453"
    INDEX 01 01:20:20
  TRACK 83 AUDIO
    TITLE "0:"
    INDEX 01 01:21:35
  TRACK 84 AUDIO
    TITLE "2:cjc152_1454"
    INDEX 01 01:21:69
  TRACK 85 AUDIO
    TITLE "0:"
    INDEX 01 01:22:66
  TRACK 86 AUDIO
    TITLE "2:cjc152_1455"
    INDEX 01 01:23:50
  TRACK 87 AUDIO
    TITLE "0:"
    INDEX 01 01:24:57
  TRACK 88 AUDIO
    TITLE "2:cjc152_1456"
    INDEX 01 01:25:13
  TRACK 89 AUDIO
    TITLE "0:"
    INDEX 01 01:26:40
  TRACK 90 AUDIO
    TITLE "2:cjc152_1457"
    INDEX 01 01:27:22
  TRACK 91 AUDIO
    TITLE "0:"
    INDEX 01 01:28:29
  TRACK 92 AUDIO
    TITLE "2:cjc152_1458"
    INDEX 01 01:28:59
  TRACK 93 AUDIO
    TITLE "0:"
    INDEX 01 01:30:24
  TRACK 94 AUDIO
    TITLE "2:cjc152_1459"
    INDEX 01 01:31:08
  TRACK 95 AUDIO
    TITLE "0:"
    INDEX 01 01:32:15
  TRACK 96 AUDIO
    TITLE "2:cjc152_1460"
    INDEX 01 01:32:45
  TRACK 97 AUDIO
    TITLE "0:"
    INDEX 01 01:33:74
  TRACK 98 AUDIO
    TITLE "2:cjc152_1461"
    INDEX 01 01:34:57
  TRACK 99 AUDIO
    TITLE "0:"
    INDEX 01 01:36:17
  TRACK 100 AUDIO
    TITLE "2:cjc152_1462"
    INDEX 01 01:36:60
  TRACK 101 AUDIO
    TITLE "0:"
    INDEX 01 01:38:28
  TRACK 102 AUDIO
    TITLE "2:cjc152_1463"
    INDEX 01 01:39:14
  TRACK 103 AUDIO
    TITLE "0:"
    INDEX 01 01:40:25
  TRACK 104 AUDIO
    TITLE "2:cjc152_1464"
    INDEX 01 01:40:56
  TRACK 105 AUDIO
    TITLE "0:"
    INDEX 01 01:41:48
  TRACK 106 AUDIO
    TITLE "2:cjc152_1465"
    INDEX 01 01:42:43
  TRACK 107 AUDIO
    TITLE "0:"
    INDEX 01 01:44:03
  TRACK 108 AUDIO
    TITLE "2:cjc152_1466"
    INDEX 01 01:44:34
  TRACK 109 AUDIO
    TITLE "0:"
    INDEX 01 01:45:34
